FILE "C:\MYAUDIO1.WAV" WAVE
  TRACK 01 AUDIO
    PREGAP 00:01:00 ; add one second to
    INDEX 01 00:00:00 ; the first track pregap
FILE "C:\MYAUDIO2.WAV" WAVE
  TRACK 02 AUDIO
    PREGAP 00:02:00
    INDEX 01 00:00:00
FILE "C:\MYAUDIO3.WAV" WAVE
  TRACK 03 AUDIO
    PREGAP 00:01:00
    INDEX 00 00:00:00
    INDEX 01 00:01:00